<svg width="108" height="49" viewBox="0 0 108 49" fill="none" xmlns="http://www.w3.org/2000/svg">
    <path d="M1.67397 6.51281H3.66202C3.83642 7.08774 3.87121 7.7672 3.76654 8.55118L3.50501 10.2498C4.08056 9.1174 4.86517 8.19403 5.85927 7.47973C6.87077 6.74801 7.96939 6.38216 9.15514 6.38216L8.8936 8.15918C7.46356 8.15918 6.19053 8.64701 5.07451 9.62263C3.97589 10.5983 3.30451 11.7917 3.06037 13.2028L2.11861 19.5792H0.0783691L1.72631 8.55118C1.83083 7.78461 1.81343 7.10516 1.67397 6.51281ZM22.5738 13.046L22.4952 13.621H12.1104C11.9884 14.9449 12.3196 16.0164 13.1044 16.8353C13.8543 17.6715 14.918 18.0896 16.2957 18.0896C17.8652 18.0896 19.1732 17.6193 20.2195 16.6785L21.1874 17.8283C19.7747 19.0828 18.0309 19.7099 15.9556 19.7099C14.5605 19.7099 13.3311 19.3703 12.2675 18.6907C11.221 17.9939 10.5496 17.0007 10.2531 15.7116C10.044 14.9276 10.009 14.0391 10.1486 13.046C10.4102 11.1645 11.2123 9.58778 12.5551 8.31598C13.8978 7.02676 15.5023 6.38216 17.3683 6.38216C18.6936 6.38216 19.8096 6.73059 20.7165 7.42746C21.6407 8.10693 22.2423 9.08255 22.5214 10.3544C22.6958 11.1383 22.7132 12.0356 22.5738 13.046ZM12.3459 12.1837H20.6641C20.8036 10.9293 20.5508 9.92751 19.9056 9.17838C19.2429 8.41181 18.3361 8.02853 17.1852 8.02853C15.9993 8.02853 14.9617 8.42051 14.0722 9.20451C13.2004 9.98848 12.6248 10.9815 12.3459 12.1837ZM35.1846 16.6785L36.1264 17.8023C34.6614 19.0741 32.9437 19.7099 30.9732 19.7099C29.5955 19.7099 28.3922 19.3703 27.3633 18.6907C26.3344 17.9939 25.6804 17.0007 25.4015 15.7116C25.2095 14.9102 25.1834 14.0217 25.3229 13.046C25.5846 11.0948 26.4391 9.50068 27.8865 8.26373C29.3338 7.00934 31.0342 6.38216 32.9873 6.38216C34.9754 6.38216 36.4926 7.01806 37.5388 8.28986L36.2832 9.41356C35.5682 8.49021 34.4259 8.02853 32.8566 8.02853C31.4265 8.02853 30.1971 8.50763 29.1682 9.46583C28.1567 10.424 27.5464 11.6174 27.3372 13.046C27.2325 13.7778 27.2412 14.405 27.3633 14.9276C27.468 15.5026 27.6598 15.9904 27.9387 16.391C28.2527 16.9311 28.7235 17.3492 29.3514 17.6454C29.9965 17.9242 30.6592 18.0635 31.3394 18.0635C32.874 18.0635 34.1557 17.6018 35.1846 16.6785ZM41.6472 0.632935H43.6353C43.7923 1.27754 43.8184 1.95699 43.7137 2.67129L42.6413 9.80556C43.2341 8.79508 44.0277 7.97626 45.0217 7.34908C46.0156 6.70446 47.0795 6.38216 48.213 6.38216C50.1661 6.38216 51.4566 7.26196 52.0843 9.02158C52.2937 9.70103 52.3373 10.4763 52.2152 11.3474L51.2735 17.5408C51.1688 18.3248 51.1863 19.0044 51.3258 19.5792H49.3378C49.1634 19.0044 49.1286 18.3248 49.2331 17.5408L50.0964 11.7133C50.2009 11.0164 50.1662 10.4066 49.9917 9.88396C49.7999 9.27419 49.4424 8.81251 48.9192 8.49891C48.3961 8.18533 47.7945 8.02853 47.1143 8.02853C45.8412 8.02853 44.7689 8.51633 43.8968 9.49196C43.0249 10.4502 42.4582 11.5913 42.1965 12.9154L41.2026 19.5792H39.1622L41.6735 2.67129C41.778 1.88731 41.7693 1.20784 41.6472 0.632935ZM65.9824 19.5792H63.9943C63.8199 19.0044 63.7851 18.3248 63.8896 17.5408L64.0204 16.6524C63.4973 17.5584 62.7649 18.2901 61.8232 18.8475C60.8815 19.405 59.8874 19.6838 58.8412 19.6838C57.5332 19.6838 56.5305 19.3353 55.8329 18.6384C55.118 17.959 54.839 17.0706 54.996 15.9728C55.1702 14.9972 55.6411 14.1785 56.4085 13.5164C57.1758 12.8544 58.0128 12.4014 58.9196 12.1575C59.844 11.8962 60.803 11.7655 61.7971 11.7655C62.9305 11.7655 63.9072 11.8526 64.7267 12.0269L64.8314 11.269C64.9535 10.276 64.7441 9.48325 64.2035 8.89091C63.663 8.31598 62.9044 8.02853 61.9278 8.02853C60.2363 8.02853 58.8151 8.42051 57.6641 9.20451L56.8008 8.15918C58.3005 6.9745 60.0532 6.38216 62.0586 6.38216C63.1748 6.38216 64.16 6.61736 65.0145 7.08774C65.869 7.55813 66.4444 8.28986 66.7409 9.2829C66.9153 9.85783 66.9502 10.5024 66.8455 11.2167L65.9039 17.5408C65.7993 18.3424 65.8254 19.0218 65.9824 19.5792ZM64.5175 13.4119C63.6978 13.168 62.7736 13.046 61.7447 13.046C60.6461 13.046 59.6259 13.2725 58.6841 13.7255C57.7425 14.161 57.1932 14.8579 57.0362 15.8161C56.9665 16.3039 57.0712 16.7308 57.3501 17.0966C57.8559 17.7413 58.6667 18.0635 59.7829 18.0635C61.0036 18.0635 62.0412 17.6018 62.8957 16.6785C63.7676 15.7552 64.3082 14.6663 64.5175 13.4119ZM71.3354 6.51281H73.3233C73.4977 7.08774 73.5327 7.7672 73.428 8.55118L73.1664 10.2498C73.7419 9.1174 74.5266 8.19403 75.5207 7.47973C76.5321 6.74801 77.6307 6.38216 78.8166 6.38216L78.555 8.15918C77.125 8.15918 75.852 8.64701 74.736 9.62263C73.6373 10.5983 72.9659 11.7917 72.7218 13.2028L71.78 19.5792H69.7397L71.3877 8.55118C71.4923 7.78461 71.4749 7.10516 71.3354 6.51281ZM78.7636 23.6821L79.993 22.5846C80.8998 23.4905 82.1817 23.9434 83.8385 23.9434C85.163 23.9434 86.315 23.5427 87.2915 22.7413C88.2849 21.9399 88.8693 20.886 89.0432 19.5792L89.4629 16.6524C88.9044 17.5757 88.1369 18.3161 87.1603 18.8736C86.2005 19.4137 85.1813 19.6838 84.0994 19.6838C82.9315 19.6838 81.9637 19.3353 81.1963 18.6384C80.4465 17.9416 79.9756 17.0183 79.7838 15.8684C79.6444 15.0844 79.6444 14.2307 79.7838 13.3074C80.1151 11.2167 81.0568 9.54423 82.609 8.28986C84.1788 7.01806 86.0266 6.38216 88.1552 6.38216C90.003 6.38216 91.5807 6.68704 92.8884 7.29681L91.0574 19.5792C90.7614 21.4085 89.9069 22.8632 88.4939 23.9434C87.0825 25.041 85.4422 25.5898 83.5768 25.5898C81.519 25.5898 79.9146 24.9539 78.7636 23.6821ZM89.8291 14.1697L90.6912 8.52505C89.8031 8.19403 88.7472 8.02853 87.5265 8.02853C86.0098 8.02853 84.7357 8.53376 83.7073 9.54423C82.6961 10.5373 82.0597 11.7917 81.798 13.3074C81.5888 14.701 81.798 15.8335 82.4259 16.7047C83.0536 17.5757 83.9774 18.0113 85.1981 18.0113C86.315 18.0113 87.3175 17.6454 88.2071 16.9137C89.1134 16.182 89.6536 15.2674 89.8291 14.1697ZM107.894 13.046L107.816 13.621H97.4309C97.3089 14.9449 97.64 16.0164 98.4243 16.8353C99.175 17.6715 100.239 18.0896 101.616 18.0896C103.187 18.0896 104.494 17.6193 105.539 16.6785L106.508 17.8283C105.095 19.0828 103.351 19.7099 101.276 19.7099C99.8815 19.7099 98.6516 19.3703 97.5881 18.6907C96.5414 17.9939 95.87 17.0007 95.574 15.7116C95.3649 14.9276 95.3298 14.0391 95.4687 13.046C95.7311 11.1645 96.5322 9.58778 97.875 8.31598C99.2177 7.02676 100.823 6.38216 102.689 6.38216C104.014 6.38216 105.13 6.73059 106.037 7.42746C106.961 8.10693 107.563 9.08255 107.842 10.3544C108.016 11.1383 108.034 12.0356 107.894 13.046ZM97.6659 12.1837H105.985C106.124 10.9293 105.872 9.92751 105.227 9.17838C104.563 8.41181 103.656 8.02853 102.506 8.02853C101.32 8.02853 100.283 8.42051 99.3932 9.20451C98.5204 9.98848 97.9452 10.9815 97.6659 12.1837ZM10.2016 40.0017L11.1432 41.1254C9.67835 42.3972 7.96069 43.0331 5.99003 43.0331C4.61233 43.0331 3.40903 42.6934 2.38014 42.0139C1.3514 41.3171 0.697413 40.3239 0.418332 39.0347C0.22653 38.2334 0.200437 37.3448 0.339901 36.3692C0.601434 34.418 1.45592 32.8239 2.90336 31.5869C4.3508 30.3324 6.05107 29.7053 8.00418 29.7053C9.99223 29.7053 11.5094 30.3413 12.5557 31.6131L11.3002 32.7367C10.5852 31.8134 9.44291 31.3517 7.87341 31.3517C6.44352 31.3517 5.21398 31.8308 4.18509 32.789C3.17374 33.7472 2.5634 34.9407 2.35405 36.3692C2.24937 37.1009 2.25807 37.7282 2.38014 38.2507C2.48481 38.8257 2.67661 39.3135 2.95569 39.7142C3.26956 40.2542 3.74045 40.6724 4.36819 40.9686C5.01348 41.2474 5.67616 41.3867 6.35624 41.3867C7.89081 41.3867 9.17269 40.925 10.2016 40.0017ZM16.5596 42.9024H14.5715C14.3971 42.2404 14.3623 41.561 14.467 40.864L16.1149 29.836H18.1552L16.5072 40.864C16.4025 41.648 16.4201 42.3276 16.5596 42.9024ZM18.5737 27.066H16.5335L16.8997 24.6094H18.9399L18.5737 27.066ZM23.2895 31.4823H21.3277L21.5632 29.836H23.525L23.9696 26.8308H25.9839L25.5391 29.836H30.4307L30.1953 31.4823H25.3037L24.2836 38.3553C24.144 39.2439 24.301 39.9669 24.7544 40.5244C25.2079 41.0992 25.8443 41.3867 26.664 41.3867C27.4835 41.3867 28.2422 41.1079 28.9397 40.5504L29.8552 41.648C28.8265 42.5715 27.6056 43.0331 26.1931 43.0331C24.833 43.0331 23.7865 42.5889 23.0541 41.7003C22.3217 40.8293 22.0601 39.6881 22.2693 38.277L23.2895 31.4823ZM45.2657 29.836H47.2798L37.8106 45.4111C36.4155 47.7457 34.9157 48.9129 33.3114 48.9129C32.0558 48.9129 31.1316 48.5384 30.5386 47.7893L31.7419 46.7178C31.8814 46.8921 32.1168 47.0314 32.4482 47.136C32.7969 47.223 33.1283 47.2666 33.4422 47.2666C33.8433 47.2666 34.2619 47.101 34.6978 46.7701C35.1338 46.4216 35.657 45.7335 36.2673 44.7056L37.4183 42.8764L33.4422 29.836H35.4302L38.7261 40.5767L45.2657 29.836Z" fill="#373737"/>
</svg>
