<svg width="59" height="26" viewBox="0 0 59 26" fill="none" xmlns="http://www.w3.org/2000/svg">
    <path d="M10.6404 15.296C10.4137 16.5678 9.70742 17.587 8.5216 18.3536C7.33576 19.1027 6.05401 19.4773 4.67634 19.4773C2.84527 19.4773 1.37169 18.8414 0.255615 17.5696L2.29596 15.7664C2.9063 16.4285 3.83057 16.7596 5.06871 16.7596C5.52213 16.7596 5.96681 16.6376 6.40278 16.3937C6.83875 16.1323 7.10033 15.8014 7.18753 15.4006C7.2224 15.1567 7.15265 14.9302 6.97826 14.7212C6.82131 14.512 6.25456 14.2334 5.27799 13.8849C4.38861 13.6062 3.74336 13.3535 3.34227 13.1271C2.99351 12.9353 2.70576 12.7264 2.47906 12.4998C2.23492 12.2733 2.03438 11.9597 1.87743 11.5591C1.70304 11.1757 1.65944 10.6532 1.74663 9.99114C1.92102 8.789 2.53138 7.82208 3.5777 7.09038C4.64147 6.34129 5.80115 5.96659 7.05674 5.96659C8.90525 5.96659 10.3527 6.60257 11.399 7.87437L9.35866 9.67757C8.76574 9.03291 7.92868 8.71065 6.84748 8.71065C6.46381 8.71065 6.10632 8.81507 5.77499 9.02422C5.46109 9.21583 5.26926 9.49465 5.19951 9.8605V10.1478C5.19951 10.2873 5.2867 10.4703 5.46109 10.6966C5.61804 10.9405 6.13249 11.2193 7.00441 11.5329C7.21369 11.6201 7.45782 11.7158 7.73684 11.8204C8.01586 11.925 8.22514 12.012 8.36465 12.0817C8.5216 12.134 8.64367 12.1776 8.73085 12.2123C9.32378 12.4911 9.81207 12.8396 10.1957 13.2578C10.3701 13.4841 10.5096 13.7542 10.6142 14.0678C10.7014 14.451 10.7102 14.8605 10.6404 15.296ZM15.3996 0.32196H18.8001C18.9048 0.844613 18.9222 1.34984 18.8525 1.83766L17.8323 8.60608C18.3903 7.80471 19.0966 7.16873 19.9511 6.6983C20.8056 6.22803 21.7124 5.99282 22.6715 5.99282C23.6481 5.99282 24.4852 6.26278 25.1827 6.80288C25.8803 7.32559 26.3336 8.04861 26.543 8.97193C26.6824 9.72102 26.6998 10.4616 26.5953 11.1933L25.6012 17.7526C25.5315 18.3274 25.5315 18.8328 25.6012 19.2683H22.2007C22.0786 18.7978 22.0525 18.2927 22.1222 17.7526L23.0378 11.7421C23.1598 10.8709 23.0204 10.1392 22.6192 9.54678C22.2007 8.98931 21.599 8.71065 20.8143 8.71065C19.9947 8.71065 19.2448 9.05897 18.5647 9.75592C17.902 10.4353 17.4922 11.1933 17.3353 12.0294L16.2628 19.2683H12.7837L15.3733 1.83766C15.4432 1.34984 15.4519 0.844613 15.3996 0.32196ZM29.0871 12.735C29.366 10.7489 30.2467 9.12879 31.7289 7.87437C33.2287 6.61995 34.9813 5.99282 36.9868 5.99282C38.4342 5.99282 39.6723 6.33245 40.7012 7.01202C41.7476 7.67406 42.4364 8.67574 42.7677 10.0172C42.977 10.8361 43.0118 11.7421 42.8723 12.735C42.5934 14.7212 41.704 16.3414 40.2042 17.5957C38.722 18.8501 36.9781 19.4773 34.9726 19.4773C33.5426 19.4773 32.3045 19.1376 31.2582 18.4582C30.2118 17.7613 29.523 16.7596 29.1916 15.4529C28.9824 14.634 28.9474 13.7282 29.0871 12.735ZM32.566 12.735C32.4614 13.4145 32.505 14.094 32.6968 14.7735C32.8712 15.3658 33.2026 15.8448 33.6909 16.2108C34.1966 16.5767 34.7633 16.7596 35.3912 16.7596C36.4548 16.7596 37.3443 16.3675 38.0593 15.5835C38.7917 14.7821 39.2451 13.8326 39.4195 12.735C39.5939 11.5678 39.4195 10.6009 38.8964 9.83428C38.3732 9.08519 37.6058 8.71065 36.5945 8.71065C35.548 8.71065 34.6588 9.11126 33.9263 9.91279C33.1938 10.7142 32.7404 11.6549 32.566 12.735ZM49.1907 11.7421L48.5104 16.2629C49.2778 16.5417 50.1236 16.6811 51.0478 16.6811C52.0941 16.6811 52.9748 16.2892 53.6898 15.5052C54.4222 14.7212 54.8669 13.7978 55.0239 12.735C55.1983 11.6026 55.05 10.6619 54.5791 9.91279C54.0734 9.18093 53.3671 8.81507 52.4603 8.81507C51.6931 8.81507 50.9867 9.11126 50.3415 9.70364C49.6963 10.296 49.3127 10.9754 49.1907 11.7421ZM46.3132 6.20181H49.7137C49.8532 6.75928 49.8794 7.26461 49.7921 7.71751L49.6353 8.60608C50.2107 7.83946 50.8996 7.2297 51.7018 6.77681C52.5213 6.30638 53.3846 6.07117 54.2915 6.07117C56.4014 6.07117 57.7791 7.24724 58.4244 9.59907C58.6336 10.505 58.6512 11.5504 58.4768 12.735C58.2151 14.6515 57.3868 16.2456 55.9917 17.5174C54.5966 18.7718 52.9399 19.3989 51.0217 19.3989C49.9753 19.3989 49.0074 19.1986 48.1181 18.7978L47.1763 25.1481H43.7235L46.3393 7.71751C46.4265 7.12513 46.4178 6.61995 46.3132 6.20181Z" fill="#1EE300"/>
</svg>
